<mxfile host="65bd71144e">
    <diagram id="M0TR3Wx5n546zz13M3ni" name="Page-1">
        <mxGraphModel dx="928" dy="614" grid="1" gridSize="10" guides="1" tooltips="1" connect="1" arrows="1" fold="1" page="1" pageScale="1" pageWidth="850" pageHeight="1100" math="0" shadow="0">
            <root>
                <mxCell id="0"/>
                <mxCell id="1" parent="0"/>
                <mxCell id="243" style="edgeStyle=none;html=1;exitX=1;exitY=0.5;exitDx=0;exitDy=0;entryX=0;entryY=0.5;entryDx=0;entryDy=0;" parent="1" source="196" target="199" edge="1">
                    <mxGeometry relative="1" as="geometry"/>
                </mxCell>
                <mxCell id="196" value="Enter Credentials detail and password" style="rounded=0;whiteSpace=wrap;html=1;" parent="1" vertex="1">
                    <mxGeometry x="275" y="150" width="120" height="60" as="geometry"/>
                </mxCell>
                <mxCell id="197" value="" style="edgeStyle=none;html=1;fontSize=18;fontColor=#000000;" parent="1" source="199" target="203" edge="1">
                    <mxGeometry relative="1" as="geometry"/>
                </mxCell>
                <mxCell id="198" value="&lt;font style=&quot;font-size: 14px&quot;&gt;Invalid&lt;/font&gt;" style="edgeStyle=none;html=1;exitX=0.5;exitY=0;exitDx=0;exitDy=0;labelBackgroundColor=#FAFAFA;fontColor=#000000;" parent="1" source="199" edge="1">
                    <mxGeometry relative="1" as="geometry">
                        <mxPoint x="170" y="180" as="targetPoint"/>
                        <Array as="points">
                            <mxPoint x="540" y="60"/>
                            <mxPoint x="170" y="60"/>
                        </Array>
                    </mxGeometry>
                </mxCell>
                <mxCell id="199" value="Authenticate" style="rhombus;whiteSpace=wrap;html=1;" parent="1" vertex="1">
                    <mxGeometry x="500" y="140" width="80" height="80" as="geometry"/>
                </mxCell>
                <mxCell id="202" value="" style="edgeStyle=none;html=1;fontSize=18;fontColor=#000000;" parent="1" source="203" target="207" edge="1">
                    <mxGeometry relative="1" as="geometry"/>
                </mxCell>
                <mxCell id="203" value="Go to Dashboard" style="whiteSpace=wrap;html=1;" parent="1" vertex="1">
                    <mxGeometry x="670" y="150" width="120" height="60" as="geometry"/>
                </mxCell>
                <mxCell id="204" value="&lt;font style=&quot;font-size: 18px&quot;&gt;valid&lt;/font&gt;" style="edgeLabel;html=1;align=center;verticalAlign=middle;resizable=0;points=[];rotation=0;labelBackgroundColor=#FFFFFF;fontColor=#000000;" parent="1" vertex="1" connectable="0">
                    <mxGeometry x="570" y="90" as="geometry">
                        <mxPoint x="47" y="90" as="offset"/>
                    </mxGeometry>
                </mxCell>
                <mxCell id="205" value="&lt;span style=&quot;background-color: rgb(214 , 214 , 214)&quot;&gt;Yes&lt;/span&gt;" style="edgeStyle=none;html=1;fontSize=18;fontColor=#000000;entryX=1;entryY=0.5;entryDx=0;entryDy=0;" parent="1" source="207" target="211" edge="1">
                    <mxGeometry relative="1" as="geometry">
                        <mxPoint x="500" y="320" as="targetPoint"/>
                    </mxGeometry>
                </mxCell>
                <mxCell id="206" value="No" style="edgeStyle=none;html=1;labelBackgroundColor=#D6D6D6;fontSize=18;fontColor=#000000;" parent="1" source="207" edge="1">
                    <mxGeometry relative="1" as="geometry">
                        <mxPoint x="730" y="450" as="targetPoint"/>
                    </mxGeometry>
                </mxCell>
                <mxCell id="207" value="Answer&amp;nbsp; Question" style="rhombus;whiteSpace=wrap;html=1;" parent="1" vertex="1">
                    <mxGeometry x="690" y="280" width="80" height="80" as="geometry"/>
                </mxCell>
                <mxCell id="208" value="" style="edgeStyle=none;html=1;labelBackgroundColor=#D6D6D6;fontSize=18;fontColor=#000000;startArrow=none;exitX=0;exitY=0.5;exitDx=0;exitDy=0;entryX=0;entryY=0.5;entryDx=0;entryDy=0;entryPerimeter=0;" parent="1" source="246" target="242" edge="1">
                    <mxGeometry relative="1" as="geometry">
                        <Array as="points">
                            <mxPoint x="110" y="320"/>
                            <mxPoint x="110" y="870"/>
                            <mxPoint x="110" y="915"/>
                        </Array>
                        <mxPoint x="380" y="915" as="targetPoint"/>
                    </mxGeometry>
                </mxCell>
                <mxCell id="210" value="Invalid" style="edgeStyle=none;html=1;labelBackgroundColor=#D6D6D6;fontSize=18;fontColor=#000000;exitX=0.5;exitY=1;exitDx=0;exitDy=0;entryX=1;entryY=0.5;entryDx=0;entryDy=0;" parent="1" source="211" target="249" edge="1">
                    <mxGeometry relative="1" as="geometry">
                        <mxPoint x="290" y="430" as="targetPoint"/>
                        <Array as="points">
                            <mxPoint x="440" y="430"/>
                        </Array>
                    </mxGeometry>
                </mxCell>
                <mxCell id="247" value="Valid&amp;nbsp;" style="edgeStyle=none;html=1;" parent="1" source="211" target="246" edge="1">
                    <mxGeometry relative="1" as="geometry"/>
                </mxCell>
                <mxCell id="211" value="Review Question" style="rhombus;whiteSpace=wrap;html=1;" parent="1" vertex="1">
                    <mxGeometry x="400" y="280" width="80" height="80" as="geometry"/>
                </mxCell>
                <mxCell id="212" value="" style="edgeStyle=none;html=1;labelBackgroundColor=#D6D6D6;fontSize=18;fontColor=#000000;endArrow=none;" parent="1" target="211" edge="1">
                    <mxGeometry relative="1" as="geometry">
                        <mxPoint x="380" y="320" as="sourcePoint"/>
                        <mxPoint x="105" y="320" as="targetPoint"/>
                    </mxGeometry>
                </mxCell>
                <mxCell id="213" value="No" style="edgeStyle=none;html=1;labelBackgroundColor=#D6D6D6;fontSize=18;fontColor=#000000;entryX=0.5;entryY=0;entryDx=0;entryDy=0;exitX=0.5;exitY=1;exitDx=0;exitDy=0;" parent="1" source="215" target="227" edge="1">
                    <mxGeometry relative="1" as="geometry"/>
                </mxCell>
                <mxCell id="214" value="Yes" style="edgeStyle=none;html=1;labelBackgroundColor=#D6D6D6;fontSize=18;fontColor=#000000;entryX=1;entryY=0.5;entryDx=0;entryDy=0;" parent="1" source="215" target="225" edge="1">
                    <mxGeometry relative="1" as="geometry">
                        <mxPoint x="610" y="490" as="targetPoint"/>
                    </mxGeometry>
                </mxCell>
                <mxCell id="215" value="Upload post" style="rhombus;whiteSpace=wrap;html=1;" parent="1" vertex="1">
                    <mxGeometry x="690" y="450" width="80" height="80" as="geometry"/>
                </mxCell>
                <mxCell id="253" style="edgeStyle=none;html=1;exitX=0;exitY=0.5;exitDx=0;exitDy=0;" parent="1" source="225" target="242" edge="1">
                    <mxGeometry relative="1" as="geometry">
                        <mxPoint x="260" y="490.33333333333326" as="targetPoint"/>
                        <Array as="points">
                            <mxPoint x="430" y="490"/>
                        </Array>
                    </mxGeometry>
                </mxCell>
                <mxCell id="225" value="Upload a post" style="whiteSpace=wrap;html=1;" parent="1" vertex="1">
                    <mxGeometry x="470" y="460" width="120" height="60" as="geometry"/>
                </mxCell>
                <mxCell id="226" value="Yes" style="edgeStyle=none;html=1;labelBackgroundColor=#D6D6D6;fontSize=18;fontColor=#000000;" parent="1" source="227" target="229" edge="1">
                    <mxGeometry relative="1" as="geometry"/>
                </mxCell>
                <mxCell id="252" value="NO" style="edgeStyle=none;html=1;exitX=0.5;exitY=1;exitDx=0;exitDy=0;entryX=1;entryY=0.5;entryDx=0;entryDy=0;entryPerimeter=0;" parent="1" source="227" target="242" edge="1">
                    <mxGeometry relative="1" as="geometry">
                        <mxPoint x="730" y="610" as="targetPoint"/>
                        <Array as="points">
                            <mxPoint x="730" y="915"/>
                        </Array>
                    </mxGeometry>
                </mxCell>
                <mxCell id="227" value="Update a post" style="rhombus;whiteSpace=wrap;html=1;" parent="1" vertex="1">
                    <mxGeometry x="690" y="660" width="80" height="80" as="geometry"/>
                </mxCell>
                <mxCell id="254" style="edgeStyle=none;html=1;exitX=0.5;exitY=1;exitDx=0;exitDy=0;entryX=1;entryY=0.5;entryDx=0;entryDy=0;entryPerimeter=0;" parent="1" source="229" target="242" edge="1">
                    <mxGeometry relative="1" as="geometry">
                        <Array as="points">
                            <mxPoint x="530" y="915"/>
                        </Array>
                    </mxGeometry>
                </mxCell>
                <mxCell id="229" value="Update post" style="whiteSpace=wrap;html=1;" parent="1" vertex="1">
                    <mxGeometry x="470" y="670" width="120" height="60" as="geometry"/>
                </mxCell>
                <mxCell id="240" style="edgeStyle=none;html=1;exitX=1;exitY=0.5;exitDx=0;exitDy=0;exitPerimeter=0;entryX=0;entryY=0.5;entryDx=0;entryDy=0;" parent="1" source="241" target="196" edge="1">
                    <mxGeometry relative="1" as="geometry">
                        <Array as="points">
                            <mxPoint x="80" y="180"/>
                        </Array>
                    </mxGeometry>
                </mxCell>
                <mxCell id="241" value="Start" style="html=1;dashed=0;whitespace=wrap;shape=mxgraph.dfd.start" parent="1" vertex="1">
                    <mxGeometry x="20" y="165" width="90" height="30" as="geometry"/>
                </mxCell>
                <mxCell id="242" value="End" style="html=1;dashed=0;whitespace=wrap;shape=mxgraph.dfd.start" parent="1" vertex="1">
                    <mxGeometry x="385" y="900" width="80" height="30" as="geometry"/>
                </mxCell>
                <mxCell id="246" value="Answer the Question" style="whiteSpace=wrap;html=1;" parent="1" vertex="1">
                    <mxGeometry x="170" y="290" width="120" height="60" as="geometry"/>
                </mxCell>
                <mxCell id="250" style="edgeStyle=none;html=1;exitX=0.5;exitY=1;exitDx=0;exitDy=0;entryX=0.5;entryY=0.5;entryDx=0;entryDy=-15.000000000000002;entryPerimeter=0;" parent="1" source="249" target="242" edge="1">
                    <mxGeometry relative="1" as="geometry">
                        <mxPoint x="220" y="440" as="sourcePoint"/>
                        <Array as="points">
                            <mxPoint x="220" y="830"/>
                            <mxPoint x="425" y="830"/>
                        </Array>
                        <mxPoint x="400" y="900" as="targetPoint"/>
                    </mxGeometry>
                </mxCell>
                <mxCell id="249" value="Report Question" style="rounded=0;whiteSpace=wrap;html=1;" parent="1" vertex="1">
                    <mxGeometry x="160" y="400" width="120" height="60" as="geometry"/>
                </mxCell>
                <mxCell id="256" value="&lt;b&gt;&lt;font style=&quot;font-size: 19px&quot;&gt;&lt;u&gt;Expert side flow chart&lt;/u&gt;&lt;/font&gt;&lt;/b&gt;" style="strokeWidth=1;shadow=0;dashed=0;align=center;html=1;shape=mxgraph.mockup.text.textBox;fontColor=#666666;align=left;fontSize=17;spacingLeft=4;spacingTop=-3;strokeColor=none;mainText=;fillColor=none;" parent="1" vertex="1">
                    <mxGeometry x="328" y="990" width="195" height="40" as="geometry"/>
                </mxCell>
            </root>
        </mxGraphModel>
    </diagram>
</mxfile>